<svg width="85" height="141" viewBox="0 0 85 141" fill="none" xmlns="http://www.w3.org/2000/svg">
<g clip-path="url(#clip0_924_1653)">
<path d="M10.4605 134.875L29.273 112.5C31.0855 110.312 31.398 109.812 32.148 107.5L33.523 103.25L23.4605 90.625L20.398 104.75L1.83546 126.75C-4.03954 133.812 5.64796 140.688 10.4605 134.875ZM56.2105 133C60.0855 140.812 71.5855 136 67.398 127.5L54.648 101.688C53.648 99.75 52.3355 97.625 51.148 95.9375L43.0855 84.5L43.648 82.8125C45.773 76.3125 46.5855 72.4375 47.0855 66L48.3355 47.9375C48.9605 39.375 43.898 32.875 35.0855 32.875C28.523 32.875 24.023 36.1875 17.9605 42.125L8.39796 51.5625C5.27296 54.625 4.27296 57.125 3.96046 61.1875L2.83546 75.9375C2.52296 79.6875 4.58546 82.3125 8.02296 82.4375C11.523 82.6875 13.648 80.625 13.9605 76.625L15.398 60.4375L19.9605 56.3125C21.648 54.8125 23.773 55.8125 23.7105 57.5L22.7105 71.1875C22.148 78.125 23.773 81.4375 28.523 87.375L41.2105 103.25C42.4605 104.875 42.5855 105.5 43.148 106.5L56.2105 133ZM77.9605 57.25H63.523L54.4605 47.1875L53.398 62.25L57.023 65.875C59.023 67.875 60.773 68.5 64.523 68.5H77.9605C81.7105 68.5 84.2105 66.375 84.2105 62.875C84.2105 59.5 81.648 57.25 77.9605 57.25ZM42.0855 27.25C49.5855 27.25 55.648 21.125 55.648 13.625C55.648 6.0625 49.5855 0 42.0855 0C34.523 0 28.4605 6.0625 28.4605 13.625C28.4605 21.125 34.523 27.25 42.0855 27.25Z" fill="white" fill-opacity="0.85"/>
</g>
<defs>
<clipPath id="clip0_924_1653">
<rect width="84.2105" height="140.688" fill="white"/>
</clipPath>
</defs>
    <style>
        path { fill: #000; }
        @media (prefers-color-scheme: dark) {
            path { fill: #FFF; }
        }
    </style>
</svg>

