<svg width="112" height="130" viewBox="0 0 112 130" fill="none" xmlns="http://www.w3.org/2000/svg">
<g clip-path="url(#clip0_1098_162)">
<path d="M56.0794 129.527C59.0569 129.527 60.87 127.628 60.87 124.521C60.87 123.984 60.8269 123.342 60.8269 122.805L60.2619 72.0712L103.621 97.7174C104.835 98.4612 105.904 98.7199 107.142 98.7199C109.904 98.7199 111.976 96.6674 111.976 93.8386C111.976 91.618 111.122 90.3999 108.869 89.158L64.1425 64.7755L108.869 40.3305C111.141 39.1512 111.976 37.8512 111.976 35.7512C111.976 32.9655 109.986 30.8118 107.142 30.8118C105.904 30.8118 104.835 31.0899 103.621 31.8143L60.2619 57.4799L60.8269 6.7462C60.8269 6.14682 60.87 5.56682 60.87 4.96744C60.87 1.86056 59.0569 0.0236816 56.0794 0.0236816C53.1019 0.0236816 51.2456 1.86056 51.2456 4.96744C51.2456 5.56682 51.2887 6.14682 51.2887 6.7462L51.8731 57.4799L8.3544 31.8143C7.12127 31.0899 6.07127 30.8118 4.79064 30.8118C2.00938 30.8118 0 32.8643 0 35.7124C0 37.8512 0.853752 39.1318 3.20813 40.3305L47.915 64.7755L3.20813 89.158C0.853752 90.4193 0 91.6568 0 93.8386C0 96.6674 2.00938 98.7199 4.79064 98.7199C6.07127 98.7199 7.12127 98.4612 8.3544 97.7174L51.8731 72.0712L51.2887 122.805C51.2887 123.342 51.2456 123.984 51.2456 124.521C51.2456 127.628 53.1019 129.527 56.0794 129.527Z" fill="white" fill-opacity="0.85"/>
</g>
<defs>
<clipPath id="clip0_1098_162">
<rect width="111.976" height="129.527" fill="white"/>
</clipPath>
</defs>
    <style>
        path { fill: #000; }
        @media (prefers-color-scheme: dark) {
            path { fill: #FFF; }
        }
    </style>
</svg>
